<?xml version="1.0" encoding="UTF-8"?>
<!--Generator: Apple Native CoreSVG 232.5-->
<!DOCTYPE svg
PUBLIC "-//W3C//DTD SVG 1.1//EN"
       "http://www.w3.org/Graphics/SVG/1.1/DTD/svg11.dtd">
<svg version="1.1" xmlns="http://www.w3.org/2000/svg" xmlns:xlink="http://www.w3.org/1999/xlink" width="24.2578" height="23.918">
 <g>
  <rect height="23.918" opacity="0" width="24.2578" x="0" y="0"/>
  <path d="M11.9531 23.9062C18.4922 23.9062 23.9062 18.4805 23.9062 11.9531C23.9062 5.41406 18.4805 0 11.9414 0C5.41406 0 0 5.41406 0 11.9531C0 18.4805 5.42578 23.9062 11.9531 23.9062Z" fill="#ffffff" fill-opacity="0.25"/>
  <path d="M10.6406 17.6836C10.2422 17.6836 9.91406 17.5195 9.60938 17.1094L6.66797 13.5C6.49219 13.2656 6.38672 13.0078 6.38672 12.7383C6.38672 12.2109 6.79688 11.7773 7.32422 11.7773C7.66406 11.7773 7.92188 11.8828 8.21484 12.2695L10.5938 15.3398L15.5977 7.30078C15.8203 6.94922 16.125 6.76172 16.4297 6.76172C16.9453 6.76172 17.4258 7.11328 17.4258 7.66406C17.4258 7.92188 17.2734 8.19141 17.1328 8.4375L11.625 17.1094C11.3789 17.4961 11.0391 17.6836 10.6406 17.6836Z" fill="#ffffff" fill-opacity="0.85"/>
 </g>
</svg>
