<?xml version="1.0" encoding="UTF-8"?>
<!--Generator: Apple Native CoreSVG 232.5-->
<!DOCTYPE svg
  PUBLIC "-//W3C//DTD SVG 1.1//EN"
  "http://www.w3.org/Graphics/SVG/1.1/DTD/svg11.dtd">
<svg version="1.1" xmlns="http://www.w3.org/2000/svg"
     width="21.6562"
     height="23.0039">
  <g>
    <rect height="23.0039" opacity="0" width="21.6562" x="0" y="0"/>
    <path
      d="M1.73438 23.0039C2.22656 23.0039 2.625 22.6172 2.625 22.125L2.625 15.6094C2.91797 15.4805 4.01953 15.0586 5.74219 15.0586C10.0781 15.0586 12.7969 17.1797 16.9219 17.1797C18.75 17.1797 19.4297 16.9805 20.3203 16.582C21.1289 16.2188 21.6562 15.6094 21.6562 14.5312L21.6562 2.63672C21.6562 2.00391 21.1172 1.64062 20.4375 1.64062C19.8633 1.64062 18.7852 2.13281 16.7695 2.13281C12.6445 2.13281 9.9375 0.0117188 5.58984 0.0117188C3.76172 0.0117188 3.07031 0.210938 2.17969 0.609375C1.37109 0.972656 0.84375 1.58203 0.84375 2.64844L0.84375 22.125C0.84375 22.6055 1.25391 23.0039 1.73438 23.0039Z"
      fill="#ffffff"/>
  </g>
</svg>
