<?xml version="1.0" encoding="UTF-8"?>
<!--Generator: Apple Native CoreSVG 232.5-->
<!DOCTYPE svg
PUBLIC "-//W3C//DTD SVG 1.1//EN"
       "http://www.w3.org/Graphics/SVG/1.1/DTD/svg11.dtd">
<svg version="1.1" xmlns="http://www.w3.org/2000/svg" xmlns:xlink="http://www.w3.org/1999/xlink" width="23.9648" height="17.1445">
 <g>
  <rect height="17.1445" opacity="0" width="23.9648" x="0" y="0"/>
  <path d="M6.65625 16.6055L22.6641 16.6055C23.1914 16.6055 23.6133 16.1953 23.6133 15.668C23.6133 15.1289 23.1914 14.7188 22.6641 14.7188L6.65625 14.7188C6.11719 14.7188 5.70703 15.1289 5.70703 15.668C5.70703 16.1953 6.11719 16.6055 6.65625 16.6055Z" fill="#ffffff" fill-opacity="0.85"/>
  <path d="M1.47656 17.1445C2.29688 17.1445 2.95312 16.4766 2.95312 15.668C2.95312 14.8477 2.29688 14.1914 1.47656 14.1914C0.65625 14.1914 0 14.8477 0 15.668C0 16.4766 0.65625 17.1445 1.47656 17.1445Z" fill="#ffffff" fill-opacity="0.85"/>
  <path d="M6.65625 9.52734L22.6641 9.52734C23.1914 9.52734 23.6133 9.10547 23.6133 8.57812C23.6133 8.05078 23.1914 7.64062 22.6641 7.64062L6.65625 7.64062C6.11719 7.64062 5.70703 8.05078 5.70703 8.57812C5.70703 9.10547 6.11719 9.52734 6.65625 9.52734Z" fill="#ffffff" fill-opacity="0.85"/>
  <path d="M1.47656 10.0547C2.29688 10.0547 2.95312 9.39844 2.95312 8.57812C2.95312 7.75781 2.29688 7.10156 1.47656 7.10156C0.65625 7.10156 0 7.75781 0 8.57812C0 9.39844 0.65625 10.0547 1.47656 10.0547Z" fill="#ffffff" fill-opacity="0.85"/>
  <path d="M6.65625 2.4375L22.6641 2.4375C23.1914 2.4375 23.6133 2.02734 23.6133 1.5C23.6133 0.960938 23.1914 0.550781 22.6641 0.550781L6.65625 0.550781C6.11719 0.550781 5.70703 0.960938 5.70703 1.5C5.70703 2.02734 6.11719 2.4375 6.65625 2.4375Z" fill="#ffffff" fill-opacity="0.85"/>
  <path d="M1.47656 2.96484C2.29688 2.96484 2.95312 2.30859 2.95312 1.5C2.95312 0.679688 2.29688 0.0234375 1.47656 0.0234375C0.65625 0.0234375 0 0.679688 0 1.5C0 2.30859 0.65625 2.96484 1.47656 2.96484Z" fill="#ffffff" fill-opacity="0.85"/>
 </g>
</svg>
