<?xml version="1.0" encoding="UTF-8"?>
<!--Generator: Apple Native CoreSVG 232.5-->
<!DOCTYPE svg
  PUBLIC "-//W3C//DTD SVG 1.1//EN"
  "http://www.w3.org/Graphics/SVG/1.1/DTD/svg11.dtd">
<svg version="1.1" xmlns="http://www.w3.org/2000/svg"
     width="10.957" height="32.2148">
  <g>
    <rect height="32.2148" opacity="0" width="10.957" x="0" y="0"/>
    <path
      d="M10.6055 5.32031C10.6055 7.85156 8.84766 9.97266 6.46875 10.4883L6.46875 25.5117C6.46875 29.332 5.82422 31.3711 5.29688 31.3711C4.78125 31.3711 4.11328 29.3086 4.11328 25.5117L4.11328 10.4883C1.74609 9.96094 0 7.85156 0 5.32031C0 2.39062 2.35547 0 5.29688 0C8.25 0 10.6055 2.39062 10.6055 5.32031ZM1.93359 3.75C1.93359 4.73438 2.78906 5.57812 3.75 5.57812C4.74609 5.57812 5.56641 4.73438 5.56641 3.75C5.56641 2.76562 4.74609 1.93359 3.75 1.93359C2.78906 1.93359 1.93359 2.76562 1.93359 3.75Z"
      fill="#ffffff" fill-opacity="0.85"/>
  </g>
</svg>
