<?xml version="1.0" encoding="UTF-8"?>
<!--Generator: Apple Native CoreSVG 232.5-->
<!DOCTYPE svg
PUBLIC "-//W3C//DTD SVG 1.1//EN"
       "http://www.w3.org/Graphics/SVG/1.1/DTD/svg11.dtd">
<svg version="1.1" xmlns="http://www.w3.org/2000/svg" xmlns:xlink="http://www.w3.org/1999/xlink" width="9.15234" height="25.7461">
 <g>
  <rect height="25.7461" opacity="0" width="9.15234" x="0" y="0"/>
  <path d="M8.80078 4.41797C8.80078 6.48047 7.39453 8.21484 5.48438 8.68359L5.48438 19.5586C5.48438 23.0273 4.875 24.9023 4.39453 24.9023C3.92578 24.9023 3.30469 23.0156 3.30469 19.5586L3.30469 8.68359C1.39453 8.20312 0 6.48047 0 4.41797C0 1.99219 1.95703 0 4.39453 0C6.84375 0 8.80078 1.99219 8.80078 4.41797ZM1.62891 3.14062C1.62891 3.96094 2.33203 4.66406 3.14062 4.66406C3.96094 4.66406 4.64062 3.96094 4.64062 3.14062C4.64062 2.33203 3.96094 1.64062 3.14062 1.64062C2.33203 1.64062 1.62891 2.33203 1.62891 3.14062Z" fill="#ffffff" fill-opacity="0.85"/>
 </g>
</svg>
