<?xml version="1.0" encoding="UTF-8"?>
<!--Generator: Apple Native CoreSVG 232.5-->
<!DOCTYPE svg
  PUBLIC "-//W3C//DTD SVG 1.1//EN"
  "http://www.w3.org/Graphics/SVG/1.1/DTD/svg11.dtd">
<svg version="1.1" xmlns="http://www.w3.org/2000/svg"
     width="24.2578" height="23.918">
  <g>
    <rect height="23.918" opacity="0" width="24.2578" x="0" y="0"/>
    <path
      d="M11.9531 23.9062C18.4922 23.9062 23.9062 18.4805 23.9062 11.9531C23.9062 5.41406 18.4805 0 11.9414 0C5.41406 0 0 5.41406 0 11.9531C0 18.4805 5.42578 23.9062 11.9531 23.9062Z"
      fill="#007aff"/>
    <path
      d="M6.23438 11.9648C6.23438 11.3555 6.65625 10.9336 7.26562 10.9336L10.9336 10.9336L10.9336 7.26562C10.9336 6.65625 11.3438 6.22266 11.9414 6.22266C12.5508 6.22266 12.9727 6.65625 12.9727 7.26562L12.9727 10.9336L16.6523 10.9336C17.25 10.9336 17.6836 11.3555 17.6836 11.9648C17.6836 12.5625 17.25 12.9609 16.6523 12.9609L12.9727 12.9609L12.9727 16.6406C12.9727 17.25 12.5508 17.6719 11.9414 17.6719C11.3438 17.6719 10.9336 17.2383 10.9336 16.6406L10.9336 12.9609L7.26562 12.9609C6.65625 12.9609 6.23438 12.5625 6.23438 11.9648Z"
      fill="#ffffff" fill-opacity="0.85"/>
  </g>
</svg>
