<?xml version="1.0" encoding="UTF-8"?>
<!--Generator: Apple Native CoreSVG 232.5-->
<!DOCTYPE svg
PUBLIC "-//W3C//DTD SVG 1.1//EN"
       "http://www.w3.org/Graphics/SVG/1.1/DTD/svg11.dtd">
<svg version="1.1" xmlns="http://www.w3.org/2000/svg" xmlns:xlink="http://www.w3.org/1999/xlink" width="24.2578" height="23.918">
 <g>
  <rect height="23.918" opacity="0" width="24.2578" x="0" y="0"/>
  <path d="M11.9531 23.918C18.4922 23.918 23.9062 18.5039 23.9062 11.9648C23.9062 5.4375 18.4805 0.0117188 11.9414 0.0117188C5.41406 0.0117188 0 5.4375 0 11.9648C0 18.5039 5.42578 23.918 11.9531 23.918Z" fill="#ff9f0a"/>
  <path d="M7.35938 18.457C7.05469 18.457 6.78516 18.1992 6.78516 17.8945L6.78516 7.75781C6.78516 7.24219 7.04297 6.86719 7.53516 6.64453C7.96875 6.43359 8.34375 6.32812 9.29297 6.32812C11.4609 6.32812 12.832 7.40625 14.8828 7.40625C15.8789 7.40625 16.4062 7.14844 16.7578 7.14844C17.25 7.14844 17.4375 7.40625 17.4375 7.76953L17.4375 13.7109C17.4375 14.2617 17.2031 14.6133 16.6992 14.8594C16.2422 15.0586 15.8672 15.1523 14.9414 15.1523C12.8555 15.1523 11.4961 14.0977 9.35156 14.0977C8.60156 14.0977 8.13281 14.2383 7.89844 14.332L7.89844 17.8945C7.89844 18.2109 7.6875 18.457 7.35938 18.457Z" fill="#ffffff"/>
 </g>
</svg>
